<mxfile host="app.diagrams.net" modified="2021-10-18T16:24:16.676Z" agent="5.0 (Windows NT 10.0; WOW64) AppleWebKit/537.36 (KHTML, like Gecko) coc_coc_browser/98.0.168 Chrome/92.0.4515.168 Safari/537.36" etag="CVy69h8dVqrfwtMj_saa" version="15.5.5" type="github">
  <diagram id="-NnQCleqrH_beRZVWZLP" name="Page-1">
    <mxGraphModel dx="1630" dy="770" grid="1" gridSize="10" guides="1" tooltips="1" connect="1" arrows="1" fold="1" page="1" pageScale="1" pageWidth="827" pageHeight="1169" background="#F1FAEE" math="0" shadow="1">
      <root>
        <mxCell id="0" />
        <mxCell id="1" parent="0" />
        <mxCell id="YiLMt7oZlH539d_1v7aD-1" value="Người quản lý" style="shape=umlActor;verticalLabelPosition=bottom;verticalAlign=top;html=1;outlineConnect=0;" vertex="1" parent="1">
          <mxGeometry x="24" y="417" width="30" height="60" as="geometry" />
        </mxCell>
        <mxCell id="YiLMt7oZlH539d_1v7aD-2" value="" style="rounded=0;whiteSpace=wrap;html=1;fillColor=#dae8fc;strokeColor=#6c8ebf;" vertex="1" parent="1">
          <mxGeometry x="89" y="126" width="650" height="719.5" as="geometry" />
        </mxCell>
        <mxCell id="YiLMt7oZlH539d_1v7aD-5" value="Người dùng" style="shape=umlActor;verticalLabelPosition=bottom;verticalAlign=top;html=1;outlineConnect=0;" vertex="1" parent="1">
          <mxGeometry x="781" y="200" width="30" height="60" as="geometry" />
        </mxCell>
        <mxCell id="YiLMt7oZlH539d_1v7aD-6" value="Thủ kho" style="shape=umlActor;verticalLabelPosition=bottom;verticalAlign=top;html=1;outlineConnect=0;" vertex="1" parent="1">
          <mxGeometry x="784" y="637" width="30" height="60" as="geometry" />
        </mxCell>
        <mxCell id="YiLMt7oZlH539d_1v7aD-8" value="Đăng nhập" style="ellipse;whiteSpace=wrap;html=1;" vertex="1" parent="1">
          <mxGeometry x="366" y="379" width="120" height="51" as="geometry" />
        </mxCell>
        <mxCell id="YiLMt7oZlH539d_1v7aD-9" value="Quản lý thông tin sản phẩm" style="ellipse;whiteSpace=wrap;html=1;" vertex="1" parent="1">
          <mxGeometry x="193" y="167" width="110" height="51" as="geometry" />
        </mxCell>
        <mxCell id="YiLMt7oZlH539d_1v7aD-10" value="Lập hóa đơn" style="ellipse;whiteSpace=wrap;html=1;" vertex="1" parent="1">
          <mxGeometry x="170" y="238.5" width="120" height="51" as="geometry" />
        </mxCell>
        <mxCell id="YiLMt7oZlH539d_1v7aD-11" value="Quản lý thông tin người dùng" style="ellipse;whiteSpace=wrap;html=1;" vertex="1" parent="1">
          <mxGeometry x="162" y="305" width="120" height="51" as="geometry" />
        </mxCell>
        <mxCell id="YiLMt7oZlH539d_1v7aD-12" value="Quản lý nhập hàng" style="ellipse;whiteSpace=wrap;html=1;" vertex="1" parent="1">
          <mxGeometry x="139" y="365" width="120" height="51" as="geometry" />
        </mxCell>
        <mxCell id="YiLMt7oZlH539d_1v7aD-13" value="Quản lý xuất hàng" style="ellipse;whiteSpace=wrap;html=1;" vertex="1" parent="1">
          <mxGeometry x="139" y="428" width="120" height="51" as="geometry" />
        </mxCell>
        <mxCell id="YiLMt7oZlH539d_1v7aD-14" value="Tìm kiếm" style="ellipse;whiteSpace=wrap;html=1;" vertex="1" parent="1">
          <mxGeometry x="149" y="489" width="120" height="51" as="geometry" />
        </mxCell>
        <mxCell id="YiLMt7oZlH539d_1v7aD-15" value="Thống kê" style="ellipse;whiteSpace=wrap;html=1;" vertex="1" parent="1">
          <mxGeometry x="158" y="552" width="120" height="51" as="geometry" />
        </mxCell>
        <mxCell id="YiLMt7oZlH539d_1v7aD-16" value="Quản lý khách hàng thân thiện" style="ellipse;whiteSpace=wrap;html=1;" vertex="1" parent="1">
          <mxGeometry x="162" y="632" width="130" height="50" as="geometry" />
        </mxCell>
        <mxCell id="YiLMt7oZlH539d_1v7aD-17" value="Quản lý phản hồi" style="ellipse;whiteSpace=wrap;html=1;" vertex="1" parent="1">
          <mxGeometry x="187" y="778" width="120" height="51" as="geometry" />
        </mxCell>
        <mxCell id="YiLMt7oZlH539d_1v7aD-18" value="Xem thông tin sản phẩm" style="ellipse;whiteSpace=wrap;html=1;" vertex="1" parent="1">
          <mxGeometry x="554" y="149" width="120" height="51" as="geometry" />
        </mxCell>
        <mxCell id="YiLMt7oZlH539d_1v7aD-19" value="Xem thông tin cửa hàng" style="ellipse;whiteSpace=wrap;html=1;" vertex="1" parent="1">
          <mxGeometry x="565" y="212" width="100" height="51" as="geometry" />
        </mxCell>
        <mxCell id="YiLMt7oZlH539d_1v7aD-20" value="Tìm kiếm sản phẩm" style="ellipse;whiteSpace=wrap;html=1;" vertex="1" parent="1">
          <mxGeometry x="554" y="274" width="120" height="51" as="geometry" />
        </mxCell>
        <mxCell id="YiLMt7oZlH539d_1v7aD-22" value="Đặt hàng" style="ellipse;whiteSpace=wrap;html=1;" vertex="1" parent="1">
          <mxGeometry x="552" y="338" width="120" height="51" as="geometry" />
        </mxCell>
        <mxCell id="YiLMt7oZlH539d_1v7aD-24" value="Thanh toán" style="ellipse;whiteSpace=wrap;html=1;" vertex="1" parent="1">
          <mxGeometry x="583" y="398" width="120" height="51" as="geometry" />
        </mxCell>
        <mxCell id="YiLMt7oZlH539d_1v7aD-25" value="Đặng ký tài khoản" style="ellipse;whiteSpace=wrap;html=1;" vertex="1" parent="1">
          <mxGeometry x="594" y="463" width="120" height="51" as="geometry" />
        </mxCell>
        <mxCell id="YiLMt7oZlH539d_1v7aD-26" value="Tạo phiếu nhập hàng" style="ellipse;whiteSpace=wrap;html=1;" vertex="1" parent="1">
          <mxGeometry x="531" y="611" width="120" height="51" as="geometry" />
        </mxCell>
        <mxCell id="YiLMt7oZlH539d_1v7aD-27" value="Tạo phiếu xuất hàng" style="ellipse;whiteSpace=wrap;html=1;" vertex="1" parent="1">
          <mxGeometry x="498" y="668" width="120" height="51" as="geometry" />
        </mxCell>
        <mxCell id="YiLMt7oZlH539d_1v7aD-28" value="Kiểm kê hàng hóa" style="ellipse;whiteSpace=wrap;html=1;" vertex="1" parent="1">
          <mxGeometry x="450" y="723" width="120" height="51" as="geometry" />
        </mxCell>
        <mxCell id="YiLMt7oZlH539d_1v7aD-30" value="Tạo phiếu trả hàng" style="ellipse;whiteSpace=wrap;html=1;" vertex="1" parent="1">
          <mxGeometry x="399" y="789" width="120" height="51" as="geometry" />
        </mxCell>
        <mxCell id="YiLMt7oZlH539d_1v7aD-31" value="" style="endArrow=none;html=1;rounded=0;entryX=0;entryY=0.5;entryDx=0;entryDy=0;fontColor=#1D3557;labelBackgroundColor=#F1FAEE;" edge="1" parent="1" target="YiLMt7oZlH539d_1v7aD-9">
          <mxGeometry width="50" height="50" relative="1" as="geometry">
            <mxPoint x="67" y="440" as="sourcePoint" />
            <mxPoint x="117" y="295" as="targetPoint" />
          </mxGeometry>
        </mxCell>
        <mxCell id="YiLMt7oZlH539d_1v7aD-33" value="" style="endArrow=none;html=1;rounded=0;entryX=0;entryY=0.5;entryDx=0;entryDy=0;fontColor=#1D3557;labelBackgroundColor=#F1FAEE;" edge="1" parent="1" target="YiLMt7oZlH539d_1v7aD-10">
          <mxGeometry width="50" height="50" relative="1" as="geometry">
            <mxPoint x="70" y="440" as="sourcePoint" />
            <mxPoint x="152.00000000000364" y="202.5" as="targetPoint" />
          </mxGeometry>
        </mxCell>
        <mxCell id="YiLMt7oZlH539d_1v7aD-34" value="" style="endArrow=none;html=1;rounded=0;entryX=0;entryY=0.5;entryDx=0;entryDy=0;fontColor=#1D3557;labelBackgroundColor=#F1FAEE;" edge="1" parent="1" target="YiLMt7oZlH539d_1v7aD-11">
          <mxGeometry width="50" height="50" relative="1" as="geometry">
            <mxPoint x="70" y="440" as="sourcePoint" />
            <mxPoint x="162.00000000000364" y="212.5" as="targetPoint" />
          </mxGeometry>
        </mxCell>
        <mxCell id="YiLMt7oZlH539d_1v7aD-35" value="" style="endArrow=none;html=1;rounded=0;entryX=0;entryY=0.5;entryDx=0;entryDy=0;fontColor=#1D3557;labelBackgroundColor=#F1FAEE;" edge="1" parent="1" target="YiLMt7oZlH539d_1v7aD-12">
          <mxGeometry width="50" height="50" relative="1" as="geometry">
            <mxPoint x="70" y="440" as="sourcePoint" />
            <mxPoint x="172.00000000000364" y="222.5" as="targetPoint" />
          </mxGeometry>
        </mxCell>
        <mxCell id="YiLMt7oZlH539d_1v7aD-36" value="" style="endArrow=none;html=1;rounded=0;entryX=0;entryY=0.5;entryDx=0;entryDy=0;fontColor=#1D3557;labelBackgroundColor=#F1FAEE;" edge="1" parent="1" target="YiLMt7oZlH539d_1v7aD-13">
          <mxGeometry width="50" height="50" relative="1" as="geometry">
            <mxPoint x="70" y="440" as="sourcePoint" />
            <mxPoint x="182.00000000000364" y="232.5" as="targetPoint" />
          </mxGeometry>
        </mxCell>
        <mxCell id="YiLMt7oZlH539d_1v7aD-37" value="" style="endArrow=none;html=1;rounded=0;entryX=0;entryY=0.5;entryDx=0;entryDy=0;fontColor=#1D3557;labelBackgroundColor=#F1FAEE;" edge="1" parent="1" target="YiLMt7oZlH539d_1v7aD-14">
          <mxGeometry width="50" height="50" relative="1" as="geometry">
            <mxPoint x="70" y="440" as="sourcePoint" />
            <mxPoint x="192.00000000000364" y="242.5" as="targetPoint" />
          </mxGeometry>
        </mxCell>
        <mxCell id="YiLMt7oZlH539d_1v7aD-38" value="" style="endArrow=none;html=1;rounded=0;entryX=0;entryY=0;entryDx=0;entryDy=0;fontColor=#1D3557;labelBackgroundColor=#F1FAEE;" edge="1" parent="1" target="YiLMt7oZlH539d_1v7aD-15">
          <mxGeometry width="50" height="50" relative="1" as="geometry">
            <mxPoint x="70" y="440" as="sourcePoint" />
            <mxPoint x="202.00000000000364" y="252.5" as="targetPoint" />
          </mxGeometry>
        </mxCell>
        <mxCell id="YiLMt7oZlH539d_1v7aD-39" value="" style="endArrow=none;html=1;rounded=0;entryX=0;entryY=0;entryDx=0;entryDy=0;fontColor=#1D3557;labelBackgroundColor=#F1FAEE;" edge="1" parent="1" target="YiLMt7oZlH539d_1v7aD-16">
          <mxGeometry width="50" height="50" relative="1" as="geometry">
            <mxPoint x="70" y="440" as="sourcePoint" />
            <mxPoint x="212.00000000000364" y="262.5" as="targetPoint" />
          </mxGeometry>
        </mxCell>
        <mxCell id="YiLMt7oZlH539d_1v7aD-40" value="" style="endArrow=none;html=1;rounded=0;entryX=0;entryY=0;entryDx=0;entryDy=0;fontColor=#1D3557;labelBackgroundColor=#F1FAEE;" edge="1" parent="1" target="YiLMt7oZlH539d_1v7aD-17">
          <mxGeometry width="50" height="50" relative="1" as="geometry">
            <mxPoint x="70" y="440" as="sourcePoint" />
            <mxPoint x="222.00000000000364" y="272.5" as="targetPoint" />
          </mxGeometry>
        </mxCell>
        <mxCell id="YiLMt7oZlH539d_1v7aD-41" value="" style="endArrow=none;html=1;rounded=0;fontColor=#1D3557;labelBackgroundColor=#F1FAEE;" edge="1" parent="1">
          <mxGeometry width="50" height="50" relative="1" as="geometry">
            <mxPoint x="760" y="650" as="sourcePoint" />
            <mxPoint x="250" y="410" as="targetPoint" />
          </mxGeometry>
        </mxCell>
        <mxCell id="YiLMt7oZlH539d_1v7aD-42" value="" style="endArrow=none;html=1;rounded=0;entryX=1;entryY=1;entryDx=0;entryDy=0;fontColor=#1D3557;labelBackgroundColor=#F1FAEE;" edge="1" parent="1" target="YiLMt7oZlH539d_1v7aD-13">
          <mxGeometry width="50" height="50" relative="1" as="geometry">
            <mxPoint x="760" y="650" as="sourcePoint" />
            <mxPoint x="242.00000000000364" y="292.5" as="targetPoint" />
          </mxGeometry>
        </mxCell>
        <mxCell id="YiLMt7oZlH539d_1v7aD-43" value="" style="endArrow=none;html=1;rounded=0;entryX=1;entryY=0.5;entryDx=0;entryDy=0;fontColor=#1D3557;labelBackgroundColor=#F1FAEE;" edge="1" parent="1" target="YiLMt7oZlH539d_1v7aD-26">
          <mxGeometry width="50" height="50" relative="1" as="geometry">
            <mxPoint x="760" y="650" as="sourcePoint" />
            <mxPoint x="252.00000000000364" y="302.5" as="targetPoint" />
          </mxGeometry>
        </mxCell>
        <mxCell id="YiLMt7oZlH539d_1v7aD-44" value="" style="endArrow=none;html=1;rounded=0;entryX=1;entryY=0.5;entryDx=0;entryDy=0;fontColor=#1D3557;labelBackgroundColor=#F1FAEE;" edge="1" parent="1" target="YiLMt7oZlH539d_1v7aD-27">
          <mxGeometry width="50" height="50" relative="1" as="geometry">
            <mxPoint x="760" y="650" as="sourcePoint" />
            <mxPoint x="262.00000000000364" y="312.5" as="targetPoint" />
          </mxGeometry>
        </mxCell>
        <mxCell id="YiLMt7oZlH539d_1v7aD-45" value="" style="endArrow=none;html=1;rounded=0;entryX=1;entryY=0.5;entryDx=0;entryDy=0;fontColor=#1D3557;labelBackgroundColor=#F1FAEE;" edge="1" parent="1" target="YiLMt7oZlH539d_1v7aD-28">
          <mxGeometry width="50" height="50" relative="1" as="geometry">
            <mxPoint x="760" y="650" as="sourcePoint" />
            <mxPoint x="272.00000000000364" y="322.5" as="targetPoint" />
          </mxGeometry>
        </mxCell>
        <mxCell id="YiLMt7oZlH539d_1v7aD-46" value="" style="endArrow=none;html=1;rounded=0;entryX=1;entryY=0.5;entryDx=0;entryDy=0;fontColor=#1D3557;labelBackgroundColor=#F1FAEE;" edge="1" parent="1" target="YiLMt7oZlH539d_1v7aD-30">
          <mxGeometry width="50" height="50" relative="1" as="geometry">
            <mxPoint x="760" y="650" as="sourcePoint" />
            <mxPoint x="282.00000000000364" y="332.5" as="targetPoint" />
          </mxGeometry>
        </mxCell>
        <mxCell id="YiLMt7oZlH539d_1v7aD-47" value="" style="endArrow=none;html=1;rounded=0;entryX=1;entryY=0.5;entryDx=0;entryDy=0;fontColor=#1D3557;labelBackgroundColor=#F1FAEE;" edge="1" parent="1" target="YiLMt7oZlH539d_1v7aD-18">
          <mxGeometry width="50" height="50" relative="1" as="geometry">
            <mxPoint x="760" y="220" as="sourcePoint" />
            <mxPoint x="292.00000000000364" y="342.5" as="targetPoint" />
          </mxGeometry>
        </mxCell>
        <mxCell id="YiLMt7oZlH539d_1v7aD-48" value="" style="endArrow=none;html=1;rounded=0;entryX=1;entryY=0.5;entryDx=0;entryDy=0;fontColor=#1D3557;labelBackgroundColor=#F1FAEE;" edge="1" parent="1" target="YiLMt7oZlH539d_1v7aD-19">
          <mxGeometry width="50" height="50" relative="1" as="geometry">
            <mxPoint x="760" y="220" as="sourcePoint" />
            <mxPoint x="302.00000000000364" y="352.5" as="targetPoint" />
          </mxGeometry>
        </mxCell>
        <mxCell id="YiLMt7oZlH539d_1v7aD-49" value="" style="endArrow=none;html=1;rounded=0;entryX=1;entryY=0;entryDx=0;entryDy=0;fontColor=#1D3557;labelBackgroundColor=#F1FAEE;" edge="1" parent="1" target="YiLMt7oZlH539d_1v7aD-20">
          <mxGeometry width="50" height="50" relative="1" as="geometry">
            <mxPoint x="760" y="220" as="sourcePoint" />
            <mxPoint x="312.00000000000364" y="362.5" as="targetPoint" />
          </mxGeometry>
        </mxCell>
        <mxCell id="YiLMt7oZlH539d_1v7aD-50" value="" style="endArrow=none;html=1;rounded=0;entryX=1;entryY=0;entryDx=0;entryDy=0;fontColor=#1D3557;labelBackgroundColor=#F1FAEE;" edge="1" parent="1" target="YiLMt7oZlH539d_1v7aD-22">
          <mxGeometry width="50" height="50" relative="1" as="geometry">
            <mxPoint x="760" y="220" as="sourcePoint" />
            <mxPoint x="322.00000000000364" y="372.5" as="targetPoint" />
          </mxGeometry>
        </mxCell>
        <mxCell id="YiLMt7oZlH539d_1v7aD-51" value="" style="endArrow=none;html=1;rounded=0;entryX=1;entryY=0.5;entryDx=0;entryDy=0;fontColor=#1D3557;labelBackgroundColor=#F1FAEE;" edge="1" parent="1" target="YiLMt7oZlH539d_1v7aD-24">
          <mxGeometry width="50" height="50" relative="1" as="geometry">
            <mxPoint x="760" y="220" as="sourcePoint" />
            <mxPoint x="332.00000000000364" y="382.5" as="targetPoint" />
          </mxGeometry>
        </mxCell>
        <mxCell id="YiLMt7oZlH539d_1v7aD-52" value="" style="endArrow=none;html=1;rounded=0;entryX=1;entryY=0.5;entryDx=0;entryDy=0;fontColor=#1D3557;labelBackgroundColor=#F1FAEE;" edge="1" parent="1" target="YiLMt7oZlH539d_1v7aD-25">
          <mxGeometry width="50" height="50" relative="1" as="geometry">
            <mxPoint x="760" y="220" as="sourcePoint" />
            <mxPoint x="342.00000000000364" y="392.5" as="targetPoint" />
          </mxGeometry>
        </mxCell>
        <mxCell id="YiLMt7oZlH539d_1v7aD-57" value="&amp;lt;&amp;lt; include &amp;gt;&amp;gt;" style="endArrow=open;endSize=12;dashed=1;html=1;rounded=1;sketch=0;fontColor=#1D3557;curved=0;exitX=1;exitY=0.5;exitDx=0;exitDy=0;" edge="1" parent="1" source="YiLMt7oZlH539d_1v7aD-9">
          <mxGeometry width="160" relative="1" as="geometry">
            <mxPoint x="130" y="420" as="sourcePoint" />
            <mxPoint x="400" y="380" as="targetPoint" />
          </mxGeometry>
        </mxCell>
        <mxCell id="YiLMt7oZlH539d_1v7aD-58" value="&amp;lt;&amp;lt; include &amp;gt;&amp;gt;" style="endArrow=open;endSize=12;dashed=1;html=1;rounded=1;sketch=0;fontColor=#1D3557;curved=0;exitX=1;exitY=0.5;exitDx=0;exitDy=0;entryX=0;entryY=0;entryDx=0;entryDy=0;" edge="1" parent="1" source="YiLMt7oZlH539d_1v7aD-10" target="YiLMt7oZlH539d_1v7aD-8">
          <mxGeometry width="160" relative="1" as="geometry">
            <mxPoint x="312.9999999999966" y="202.4999999999999" as="sourcePoint" />
            <mxPoint x="410" y="390" as="targetPoint" />
          </mxGeometry>
        </mxCell>
        <mxCell id="YiLMt7oZlH539d_1v7aD-59" value="&amp;lt;&amp;lt; include &amp;gt;&amp;gt;" style="endArrow=open;endSize=12;dashed=1;html=1;rounded=1;sketch=0;fontColor=#1D3557;curved=0;exitX=1;exitY=1;exitDx=0;exitDy=0;" edge="1" parent="1" source="YiLMt7oZlH539d_1v7aD-11">
          <mxGeometry width="160" relative="1" as="geometry">
            <mxPoint x="322.9999999999966" y="212.4999999999999" as="sourcePoint" />
            <mxPoint x="370" y="400" as="targetPoint" />
          </mxGeometry>
        </mxCell>
        <mxCell id="YiLMt7oZlH539d_1v7aD-60" value="&amp;lt;&amp;lt; include &amp;gt;&amp;gt;" style="endArrow=open;endSize=12;dashed=1;html=1;rounded=1;sketch=0;fontColor=#1D3557;curved=0;exitX=1;exitY=0.5;exitDx=0;exitDy=0;" edge="1" parent="1" source="YiLMt7oZlH539d_1v7aD-12">
          <mxGeometry width="160" relative="1" as="geometry">
            <mxPoint x="332.9999999999966" y="222.4999999999999" as="sourcePoint" />
            <mxPoint x="370" y="410" as="targetPoint" />
          </mxGeometry>
        </mxCell>
        <mxCell id="YiLMt7oZlH539d_1v7aD-61" value="&amp;lt;&amp;lt; include &amp;gt;&amp;gt;" style="endArrow=open;endSize=12;dashed=1;html=1;rounded=1;sketch=0;fontColor=#1D3557;curved=0;exitX=0.999;exitY=0.292;exitDx=0;exitDy=0;exitPerimeter=0;entryX=0;entryY=1;entryDx=0;entryDy=0;" edge="1" parent="1" source="YiLMt7oZlH539d_1v7aD-13" target="YiLMt7oZlH539d_1v7aD-8">
          <mxGeometry width="160" relative="1" as="geometry">
            <mxPoint x="342.9999999999966" y="232.4999999999999" as="sourcePoint" />
            <mxPoint x="440" y="420" as="targetPoint" />
          </mxGeometry>
        </mxCell>
        <mxCell id="YiLMt7oZlH539d_1v7aD-62" value="&amp;lt;&amp;lt; include &amp;gt;&amp;gt;" style="endArrow=open;endSize=12;dashed=1;html=1;rounded=1;sketch=0;fontColor=#1D3557;curved=0;exitX=0.768;exitY=0.072;exitDx=0;exitDy=0;exitPerimeter=0;entryX=0.376;entryY=0.976;entryDx=0;entryDy=0;entryPerimeter=0;" edge="1" parent="1" source="YiLMt7oZlH539d_1v7aD-14" target="YiLMt7oZlH539d_1v7aD-8">
          <mxGeometry width="160" relative="1" as="geometry">
            <mxPoint x="352.9999999999966" y="242.4999999999999" as="sourcePoint" />
            <mxPoint x="450" y="430" as="targetPoint" />
          </mxGeometry>
        </mxCell>
        <mxCell id="YiLMt7oZlH539d_1v7aD-63" value="&amp;lt;&amp;lt; include &amp;gt;&amp;gt;" style="endArrow=open;endSize=12;dashed=1;html=1;rounded=1;sketch=0;fontColor=#1D3557;curved=0;exitX=0;exitY=0.5;exitDx=0;exitDy=0;entryX=1;entryY=0.5;entryDx=0;entryDy=0;" edge="1" parent="1" source="YiLMt7oZlH539d_1v7aD-24" target="YiLMt7oZlH539d_1v7aD-8">
          <mxGeometry width="160" relative="1" as="geometry">
            <mxPoint x="362.9999999999966" y="252.4999999999999" as="sourcePoint" />
            <mxPoint x="460" y="440" as="targetPoint" />
          </mxGeometry>
        </mxCell>
        <mxCell id="YiLMt7oZlH539d_1v7aD-64" value="&amp;lt;&amp;lt; include &amp;gt;&amp;gt;" style="endArrow=open;endSize=12;dashed=1;html=1;rounded=1;sketch=0;fontColor=#1D3557;curved=0;exitX=1;exitY=0;exitDx=0;exitDy=0;entryX=0.5;entryY=1;entryDx=0;entryDy=0;" edge="1" parent="1" source="YiLMt7oZlH539d_1v7aD-17" target="YiLMt7oZlH539d_1v7aD-8">
          <mxGeometry width="160" relative="1" as="geometry">
            <mxPoint x="372.9999999999966" y="262.4999999999999" as="sourcePoint" />
            <mxPoint x="470" y="450" as="targetPoint" />
          </mxGeometry>
        </mxCell>
        <mxCell id="YiLMt7oZlH539d_1v7aD-65" value="&amp;lt;&amp;lt; include &amp;gt;&amp;gt;" style="endArrow=open;endSize=12;dashed=1;html=1;rounded=1;sketch=0;fontColor=#1D3557;curved=0;exitX=1;exitY=0;exitDx=0;exitDy=0;" edge="1" parent="1" source="YiLMt7oZlH539d_1v7aD-15">
          <mxGeometry width="160" relative="1" as="geometry">
            <mxPoint x="382.9999999999966" y="272.4999999999999" as="sourcePoint" />
            <mxPoint x="420" y="430" as="targetPoint" />
          </mxGeometry>
        </mxCell>
        <mxCell id="YiLMt7oZlH539d_1v7aD-66" value="&amp;lt;&amp;lt; include &amp;gt;&amp;gt;" style="endArrow=open;endSize=12;dashed=1;html=1;rounded=1;sketch=0;fontColor=#1D3557;curved=0;exitX=1;exitY=0;exitDx=0;exitDy=0;" edge="1" parent="1" source="YiLMt7oZlH539d_1v7aD-16">
          <mxGeometry width="160" relative="1" as="geometry">
            <mxPoint x="392.9999999999966" y="282.4999999999999" as="sourcePoint" />
            <mxPoint x="420" y="430" as="targetPoint" />
          </mxGeometry>
        </mxCell>
        <mxCell id="YiLMt7oZlH539d_1v7aD-67" value="&amp;lt;&amp;lt; include &amp;gt;&amp;gt;" style="endArrow=open;endSize=12;dashed=1;html=1;rounded=1;sketch=0;fontColor=#1D3557;curved=0;exitX=0;exitY=0;exitDx=0;exitDy=0;entryX=0.607;entryY=1.02;entryDx=0;entryDy=0;entryPerimeter=0;" edge="1" parent="1" source="YiLMt7oZlH539d_1v7aD-30" target="YiLMt7oZlH539d_1v7aD-8">
          <mxGeometry width="160" relative="1" as="geometry">
            <mxPoint x="402.9999999999966" y="292.4999999999999" as="sourcePoint" />
            <mxPoint x="500" y="480" as="targetPoint" />
          </mxGeometry>
        </mxCell>
        <mxCell id="YiLMt7oZlH539d_1v7aD-68" value="&amp;lt;&amp;lt; include &amp;gt;&amp;gt;" style="endArrow=open;endSize=12;dashed=1;html=1;rounded=1;sketch=0;fontColor=#1D3557;curved=0;exitX=0;exitY=0;exitDx=0;exitDy=0;" edge="1" parent="1" source="YiLMt7oZlH539d_1v7aD-28">
          <mxGeometry width="160" relative="1" as="geometry">
            <mxPoint x="412.9999999999966" y="302.4999999999999" as="sourcePoint" />
            <mxPoint x="450" y="430" as="targetPoint" />
          </mxGeometry>
        </mxCell>
        <mxCell id="YiLMt7oZlH539d_1v7aD-69" value="&amp;lt;&amp;lt; include &amp;gt;&amp;gt;" style="endArrow=open;endSize=12;dashed=1;html=1;rounded=1;sketch=0;fontColor=#1D3557;curved=0;exitX=0;exitY=0;exitDx=0;exitDy=0;" edge="1" parent="1" source="YiLMt7oZlH539d_1v7aD-27">
          <mxGeometry width="160" relative="1" as="geometry">
            <mxPoint x="422.9999999999966" y="312.4999999999999" as="sourcePoint" />
            <mxPoint x="460" y="420" as="targetPoint" />
          </mxGeometry>
        </mxCell>
        <mxCell id="YiLMt7oZlH539d_1v7aD-70" value="&amp;lt;&amp;lt; include &amp;gt;&amp;gt;" style="endArrow=open;endSize=12;dashed=1;html=1;rounded=1;sketch=0;fontColor=#1D3557;curved=0;exitX=0.5;exitY=0;exitDx=0;exitDy=0;entryX=0.95;entryY=0.758;entryDx=0;entryDy=0;entryPerimeter=0;" edge="1" parent="1" source="YiLMt7oZlH539d_1v7aD-26" target="YiLMt7oZlH539d_1v7aD-8">
          <mxGeometry x="0.3202" y="-26" width="160" relative="1" as="geometry">
            <mxPoint x="432.9999999999966" y="322.4999999999999" as="sourcePoint" />
            <mxPoint x="530" y="510" as="targetPoint" />
            <mxPoint y="1" as="offset" />
          </mxGeometry>
        </mxCell>
      </root>
    </mxGraphModel>
  </diagram>
</mxfile>
